<svg xmlns="http://www.w3.org/2000/svg" xmlns:xlink="http://www.w3.org/1999/xlink" xmlns:sketch="http://www.bohemiancoding.com/sketch/ns" viewBox="0 0 30 30" version="1.1" x="0px" y="0px" preserveAspectRatio="none" width="100%" height="100%" class=""><title>shopping_065-voucher-ticket-coupon-discount</title><desc>Created with Sketch.</desc><g stroke="none" stroke-width="1" fill-rule="evenodd" sketch:type="MSPage"><g sketch:type="MSArtboardGroup" transform="translate(-225.000000, -270.000000)"><g sketch:type="MSLayerGroup" transform="translate(227.000000, 276.000000)"><path d="M4,8.5 C4,6.56700338 2.43299662,5 0.5,5 C0.223857625,5 0,5.22385763 0,5.5 C0,5.77614237 0.223857625,6 0.5,6 C1.88071187,6 3,7.11928813 3,8.5 C3,9.88071187 1.88071187,11 0.5,11 C0.223857625,11 0,11.2238576 0,11.5 C0,11.7761424 0.223857625,12 0.5,12 C2.43299662,12 4,10.4329966 4,8.5 Z" sketch:type="MSShapeGroup"></path><path d="M26,8.5 C26,6.56700338 24.4329966,5 22.5,5 C22.2238576,5 22,5.22385763 22,5.5 C22,5.77614237 22.2238576,6 22.5,6 C23.8807119,6 25,7.11928813 25,8.5 C25,9.88071187 23.8807119,11 22.5,11 C22.2238576,11 22,11.2238576 22,11.5 C22,11.7761424 22.2238576,12 22.5,12 C24.4329966,12 26,10.4329966 26,8.5 Z" sketch:type="MSShapeGroup" transform="translate(24.000000, 8.500000) scale(-1, 1) translate(-24.000000, -8.500000) "></path><path d="M1,1 L25,1 L25,5.5 L26,5.5 L26,0.5 C26,0.223857625 25.7761424,0 25.5,0 L0.5,0 C0.223857625,0 0,0.223857625 0,0.5 L0,5.5 L1,5.5 L1,1 Z" sketch:type="MSShapeGroup"></path><path d="M1,12.5 L25,12.5 L25,17 L26,17 L26,12 C26,11.7238576 25.7761424,11.5 25.5,11.5 L0.5,11.5 C0.223857625,11.5 0,11.7238576 0,12 L0,17 L1,17 L1,12.5 Z" sketch:type="MSShapeGroup" transform="translate(13.000000, 14.250000) scale(1, -1) translate(-13.000000, -14.250000) "></path><circle sketch:type="MSShapeGroup" cx="19.5" cy="2.5" r="0.5"></circle><circle sketch:type="MSShapeGroup" cx="19.5" cy="4.5" r="0.5"></circle><circle sketch:type="MSShapeGroup" cx="19.5" cy="6.5" r="0.5"></circle><circle sketch:type="MSShapeGroup" cx="19.5" cy="8.5" r="0.5"></circle><circle sketch:type="MSShapeGroup" cx="19.5" cy="10.5" r="0.5"></circle><circle sketch:type="MSShapeGroup" cx="19.5" cy="12.5" r="0.5"></circle><circle sketch:type="MSShapeGroup" cx="19.5" cy="14.5" r="0.5"></circle><path d="M11,5 C11,3.8954305 10.1045695,3 9,3 C7.8954305,3 7,3.8954305 7,5 C7,6.1045695 7.8954305,7 9,7 C10.1045695,7 11,6.1045695 11,5 Z M8,5 C8,4.44771525 8.44771525,4 9,4 C9.55228475,4 10,4.44771525 10,5 C10,5.55228475 9.55228475,6 9,6 C8.44771525,6 8,5.55228475 8,5 Z" sketch:type="MSShapeGroup"></path><path d="M7.1095656,13.1876525 C6.93706082,13.4032834 6.97202151,13.7179296 7.18765248,13.8904344 C7.40328344,14.0629392 7.71792963,14.0279785 7.8904344,13.8123475 L15.8904344,3.81234752 C16.0629392,3.59671656 16.0279785,3.28207037 15.8123475,3.1095656 C15.5967166,2.93706082 15.2820704,2.97202151 15.1095656,3.18765248 L7.1095656,13.1876525 Z" sketch:type="MSShapeGroup"></path><path d="M16,12 C16,10.8954305 15.1045695,10 14,10 C12.8954305,10 12,10.8954305 12,12 C12,13.1045695 12.8954305,14 14,14 C15.1045695,14 16,13.1045695 16,12 Z M13,12 C13,11.4477153 13.4477153,11 14,11 C14.5522847,11 15,11.4477153 15,12 C15,12.5522847 14.5522847,13 14,13 C13.4477153,13 13,12.5522847 13,12 Z" sketch:type="MSShapeGroup"></path></g></g></g></svg>
