<svg class="" height="100%" preserveAspectRatio="none" version="1.1" viewBox="0 0 8.4666665 8.4666669" width="100%" x="0px" xmlns="http://www.w3.org/2000/svg" xmlns:cc="http://creativecommons.org/ns#" xmlns:dc="http://purl.org/dc/elements/1.1/" xmlns:inkscape="http://www.inkscape.org/namespaces/inkscape" xmlns:rdf="http://www.w3.org/1999/02/22-rdf-syntax-ns#" xmlns:sodipodi="http://sodipodi.sourceforge.net/DTD/sodipodi-0.dtd" xmlns:svg="http://www.w3.org/2000/svg" y="0px" fill="rgba(232, 58, 48, 1)"><g transform="translate(0,-288.53332)"><path d="m 1.3229167,290.12082 c -0.43516025,0 -0.79375005,0.35859 -0.79375005,0.79375 v 1.05833 a 0.26460979,0.26460979 0 0 0 0.2645833,0.26459 c 0.29538345,0 0.52916675,0.23378 0.52916675,0.52916 0,0.29539 -0.2337833,0.52917 -0.52916675,0.52917 a 0.26460979,0.26460979 0 0 0 -0.2645833,0.26458 v 1.05834 c 0,0.43516 0.3585898,0.79375 0.79375005,0.79375 H 7.14375 c 0.4351602,0 0.79375,-0.35859 0.79375,-0.79375 v -1.05834 a 0.26460979,0.26460979 0 0 0 -0.2645834,-0.26458 c -0.2953835,0 -0.5291666,-0.23378 -0.5291666,-0.52917 0,-0.29538 0.2337831,-0.52916 0.5291666,-0.52916 A 0.26460979,0.26460979 0 0 0 7.9375,291.9729 v -1.05833 c 0,-0.43516 -0.3585898,-0.79375 -0.79375,-0.79375 z m 0,0.52917 H 7.14375 c 0.1511564,0 0.2645833,0.11342 0.2645833,0.26458 v 0.84749 c -0.4514718,0.12075 -0.79375,0.51682 -0.79375,1.00459 0,0.48778 0.3422782,0.88385 0.79375,1.00459 v 0.8475 c 0,0.15115 -0.1134269,0.26458 -0.2645833,0.26458 H 1.3229167 c -0.1511565,0 -0.2645834,-0.11343 -0.2645834,-0.26458 v -0.8475 c 0.4514718,-0.12074 0.7937501,-0.51681 0.7937501,-1.00459 0,-0.48777 -0.3422783,-0.88384 -0.7937501,-1.00459 v -0.84749 c 0,-0.15116 0.1134269,-0.26458 0.2645834,-0.26458 z m 4.2281659,0.52658 a 0.26460979,0.26460979 0 0 0 -0.181901,0.0801 l -2.6458332,2.64583 a 0.26460979,0.26460979 0 1 0 0.3741367,0.37414 l 2.6458332,-2.64583 A 0.26460979,0.26460979 0 0 0 5.5510826,291.17657 Z M 3.175,291.17957 c -0.4352422,0 -0.79375,0.35851 -0.79375,0.79375 0,0.43525 0.3585078,0.79375 0.79375,0.79375 0.4352422,0 0.7937499,-0.3585 0.7937499,-0.79375 0,-0.43524 -0.3585077,-0.79375 -0.7937499,-0.79375 z m 0,0.52917 c 0.1492593,0 0.2645833,0.11532 0.2645833,0.26458 0,0.14926 -0.115324,0.26459 -0.2645833,0.26459 -0.1492594,0 -0.2645833,-0.11533 -0.2645833,-0.26459 0,-0.14926 0.1153239,-0.26458 0.2645833,-0.26458 z m 2.1166666,1.05791 c -0.4352422,0 -0.79375,0.35851 -0.79375,0.79375 0,0.43525 0.3585078,0.79375 0.79375,0.79375 0.4352422,0 0.79375,-0.3585 0.79375,-0.79375 0,-0.43524 -0.3585078,-0.79375 -0.79375,-0.79375 z m 0,0.52917 c 0.1492594,0 0.2645834,0.11532 0.2645834,0.26458 0,0.14926 -0.115324,0.26459 -0.2645834,0.26459 -0.1492594,0 -0.2645833,-0.11533 -0.2645833,-0.26459 0,-0.14926 0.1153239,-0.26458 0.2645833,-0.26458 z" style="color: rgb(255 255 255);font: medium sans-serif;font-feature-settings: normal;text-indent: 0px;text-align: start;text-decoration: none solid rgb(0, 0, 0);letter-spacing: normal;word-spacing: normal;text-transform: none;writing-mode: lr-tb;direction: ltr;text-orientation: mixed;dominant-baseline: auto;baseline-shift: baseline;text-anchor: start;white-space: normal;clip-rule: nonzero;display: inline;overflow: visible;visibility: visible;opacity: 1;isolation: auto;mix-blend-mode: normal;color-interpolation: srgb;color-interpolation-filters: linearrgb;vector-effect: none;fill-opacity: 1;fill-rule: nonzero;stroke: none;stroke-width: 0.529167;stroke-linecap: round;stroke-linejoin: round;stroke-miterlimit: 4;stroke-dasharray: none;stroke-dashoffset: 0;stroke-opacity: 1;color-rendering: auto;image-rendering: auto;shape-rendering: auto;text-rendering: auto;"></path></g></svg>
