<svg xmlns="http://www.w3.org/2000/svg" xmlns:xlink="http://www.w3.org/1999/xlink" version="1.0" x="0px" y="0px" viewBox="0 0 100 100" enable-background="new 0 0 100 100" xml:space="preserve" preserveAspectRatio="none" width="100%" height="100%" class="" fill="rgba(16, 145, 33, 1)"><path d="M89.4826279,17.6715031L78.2487488,4.999999c0,0-6.7923508,5.224329-13.8462448,5.224329  c-7.0546761,0.0007896-13.0618324-5.224329-13.0618324-5.224329s-6.0085564,5.224329-13.0616531,5.224329  c-7.0546761,0-13.8462448-5.224329-13.8462448-5.224329l-11.2344637,12.671504c0,0,5.7925043,3.1340504,5.7925043,10.4437561  c0,7.3092785-5.270031,9.0189533-5.270031,24.5623875C13.7207832,81.6772232,51.3406715,95,51.3406715,95  S88.960762,81.6772232,88.960762,52.6784363c0-15.5434341-5.270256-17.253109-5.270256-24.5622044  C83.6895142,20.8055534,89.4826279,17.6715031,89.4826279,17.6715031z M46.0518417,65.7970581l-0.0047607-0.0045395  l-0.0047417,0.0045395L31.1068249,50.8597794l6.0706654-6.070282l8.8707848,8.8687973l19.4559593-19.4553719l6.0694733,6.0712738  L46.0518417,65.7970581z"></path></svg>
